<?xml version="1.0" encoding="UTF-8"?>
<svg width="100pt" height="100pt" version="1.1" viewBox="0 0 100 100" xmlns="http://www.w3.org/2000/svg">
 <path fill="#333" d="m82.832 17.504h-2.0312v-1.1094c0-5.0547-4.1133-9.168-9.168-9.168-5.0547 0-9.168 4.1133-9.168 9.168v1.1094h-24.93v-1.1094c0-5.0547-4.1133-9.168-9.168-9.168-5.0547 0-9.168 4.1133-9.168 9.168v1.1094h-2.0312c-6.2461 0-11.328 5.082-11.328 11.328v52.613c0 6.2461 5.082 11.328 11.328 11.328h65.668c6.2461 0 11.328-5.082 11.328-11.328l-0.003906-52.613c0-6.2461-5.082-11.328-11.328-11.328zm-13.336-1.1094c0-1.1797 0.95703-2.1367 2.1367-2.1367 1.1797 0 2.1367 0.95703 2.1367 2.1367v7.2734h-4.2734zm-43.266 0c0-1.1797 0.95703-2.1367 2.1367-2.1367 1.1797 0 2.1367 0.95703 2.1367 2.1367v7.2734h-4.2734zm-9.0625 8.1406h2.0312v2.6523c0 1.9414 1.5742 3.5156 3.5156 3.5156h11.305c1.9414 0 3.5156-1.5742 3.5156-3.5156v-2.6523h24.93v2.6523c0 1.9414 1.5742 3.5156 3.5156 3.5156h11.305c1.9414 0 3.5156-1.5742 3.5156-3.5156v-2.6523h2.0312c2.3711 0 4.2969 1.9258 4.2969 4.2969v9.3281h-74.258v-9.3281c0-2.3711 1.9258-4.2969 4.2969-4.2969zm65.664 61.207h-65.664c-2.3711 0-4.2969-1.9258-4.2969-4.2969v-36.254h74.262l-0.003906 36.254c0 2.3711-1.9258 4.2969-4.2969 4.2969z"/>
</svg>
