<?xml version="1.0" encoding="UTF-8"?>
<svg width="100pt" height="100pt" version="1.1" viewBox="0 0 100 100" xmlns="http://www.w3.org/2000/svg">
    <g fill="#333">
    <path d="m75.523 50.258c0-0.61328-0.49609-1.1094-1.1094-1.1094l-14.789-0.003907c2.2852-2.1016 3.8438-4.9844 5.3242-8.0312 1.957-4.0234 3.875-9.2031 1.3398-13.586-1.3203-2.2812-3.7695-3.4492-6.5273-3.2656 0.003906-0.011719 0.007812-0.027344 0.011719-0.039063 0.32812-0.95312 0.65234-1.9102 0.97266-2.8672 1.4102-4.2148 1.4727-6.9219 0.18359-8.0469-0.81641-0.71484-1.9531-0.72266-3.3789-0.019532-1.957 0.96094-3.543 2.75-4.832 4.3711-1.5195 1.9102-2.6562 4.1523-3.3789 6.668-0.078125 0.26953-0.12891 0.53906-0.19531 0.80859-2.0312-5.7422-6.0156-7.7539-8.2891-7.6953-1.0859 0.03125-1.8555 0.54297-2.0586 1.3672-0.17578 0.71484 0.035156 1.8086 2.0586 2.957 0.64453 0.36719 1.2305 1.2891 1.7656 2.6094-0.89453-0.40625-1.8867-0.625-2.9219-0.58594-2.7266 0.066407-4.9375 1.7852-5.6289 4.3789-0.99219 3.7148-0.17187 8.3594 2.5039 14.191 1.2539 2.7305 2.6367 4.9648 4.1953 6.7812l-15.18 0.003906c-0.61328 0-1.1094 0.49609-1.1094 1.1094v5.4258c0 0.61328 0.49609 1.1094 1.1094 1.1094h2.6094l4.3789 29.484c0.082031 0.54297 0.54688 0.94922 1.0977 0.94922h32.648c0.55078 0 1.0195-0.40234 1.0977-0.94922l4.3789-29.484h2.6094c0.61328 0 1.1094-0.49609 1.1094-1.1094zm-11.152-21.613c2.0117 3.4727 0.30078 7.9688-1.4141 11.5-1.8594 3.8203-3.8164 7.375-7.2148 9h-1.4141c0.37891-5.0938 1.1758-10.168 2.4023-15.086 0.625-2.5156 1.4258-5.0117 2.2461-7.457 1.8398-0.375 4.1797-0.050781 5.3945 2.043zm-12.887-3.6992c0.64062-2.2344 1.6445-4.2188 2.9805-5.8984 1.1367-1.4297 2.5078-2.9961 4.0703-3.7617 0.66797-0.32812 0.93359-0.28906 0.9375-0.30078 0.3125 0.35156 0.26953 2.3906-0.82812 5.668-0.32031 0.95312-0.64453 1.9062-0.96875 2.8555-1.1094 3.2383-2.2539 6.5898-3.1094 10.016-1.2695 5.0977-2.0898 10.348-2.4727 15.625h-0.88672c0.20703-2.8398 0.56641-10.113-0.46484-17.152-0.20703-2.2031 0.050781-4.6406 0.74219-7.0508zm-9.4336-5.0547c0.125 0.046875 0.25391 0.10156 0.39062 0.16406 0.98828 0.46094 3.4414 2.0078 4.8086 6.3828 2.5312 8.0781 1.9648 19.324 1.7227 22.711h-0.39453c-0.28125-6.2305-1.5703-26.211-6.5273-29.258zm-3.4492 21.547c-2.418-5.2695-3.2188-9.5391-2.375-12.691 0.44531-1.668 1.7695-2.6875 3.5391-2.7305 1.5859-0.054687 3.5273 0.83594 4.1836 2.8867 0.003906 0.011718 0.015625 0.019531 0.019531 0.03125 1.3047 5.8398 2.1016 14.031 2.3867 20.211h-2.5c-1.9961-1.8438-3.7188-4.3633-5.2539-7.707zm30.676 17.234-18.328 8.4375c-0.55859 0.25781-0.80078 0.91797-0.54297 1.4727 0.1875 0.40625 0.58984 0.64844 1.0078 0.64844 0.15625 0 0.3125-0.03125 0.46484-0.10156l17.008-7.832-0.80469 5.4062-10.457 5.1172c-0.55078 0.26953-0.78125 0.93359-0.51172 1.4883 0.19141 0.39453 0.58984 0.62109 1 0.62109 0.16406 0 0.33203-0.035157 0.48828-0.11328l9.0859-4.4453-0.78906 5.3125-4.2617 2.0312c-0.55469 0.26562-0.78906 0.92578-0.52344 1.4805 0.19141 0.39844 0.58984 0.63281 1.0039 0.63281 0.16016 0 0.32422-0.035156 0.47656-0.10938l2.9102-1.3867-1.1367 7.668-30.734 0.003906-4.1914-28.211h39.113zm4.0234-4.1016h-46.602v-3.2031h46.602z"/>
    </g>
</svg>
