<?xml version="1.0" encoding="UTF-8"?>
<svg width="100pt" height="100pt" version="1.1" viewBox="0 0 100 100" xmlns="http://www.w3.org/2000/svg">
    <g fill="#333">
        <path d="m68.336 60c-3.8906 0-7.3281 1.9531-9.832 3.9688-2.3203-2.6055-5.2383-3.9688-8.5352-3.9688-2.1797 0-4.25 0.48828-6.1641 1.3945 0.625-6.3516 2.0352-14.578 5.2305-21.211 0.71484 0.19141 1.6367 0.34766 2.7969 0.34766 2.1758 0 5.1406-0.54297 8.9062-2.4062 10.566-5.2148 7.6992-22.668 7.5703-23.406-0.12109-0.69922-0.66797-1.2461-1.3672-1.3633-0.69922-0.11328-1.3945 0.22266-1.7344 0.84375-0.86328 1.582-3.1211 2.2461-5.7383 3.0195-6.0391 1.7852-14.27 4.2422-12.941 20.492-1.0195 1.9531-1.8828 4.0586-2.6172 6.2383-0.34766-0.375-0.73438-0.77344-1.1484-1.1797 0.019531-0.14062 0.023437-0.28516 0.007812-0.42969-1.7578-15.391-13.062-16.711-19.82-17.5-2.2812-0.26562-4.4375-0.51953-5.2539-1.1562-0.47656-0.37109-1.1172-0.45703-1.6758-0.21875-0.55859 0.23438-0.94141 0.75781-1.0039 1.3594-0.046875 0.46094-1.0703 11.348 9.0547 18.219 3.7344 2.5352 7.125 3.3438 9.9336 3.3438 2.6758 0 4.8008-0.73438 6.2227-1.418 1.0586 1 1.9531 2.0117 2.5508 2.7773-1.4062 5.3477-2.1484 10.945-2.5117 15.969-0.83203 0.72656-1.6172 1.543-2.3359 2.4688-2.5547-1.7852-6.4922-3.9258-11.605-2.8203-13.426 2.8906-13.004 20.918-12.98 21.684l0.046875 1.6211h73.277v-1.668c0-12.043-5.7383-25-18.332-25zm-42.398-19.711c-5.9141-4.0117-7.293-9.6406-7.5781-12.781 1.207 0.29297 2.6172 0.45703 4.2031 0.64453 6.3086 0.73828 14.027 1.6484 16.387 11.652-1.1484-0.67969-2.3789-1.2148-3.6523-1.4453l-0.59375 3.2812c0.82031 0.14844 1.6523 0.51562 2.4648 0.98828-2.4883 0.73438-6.4336 0.91406-11.23-2.3398zm34.473-19.871c1.7188-0.50781 3.4688-1.0273 4.9453-1.8789 0.27344 4.832-0.10938 13.645-6.0938 16.598-4.082 2.0195-6.8867 2.168-8.5078 1.9648 1.4453-2.2852 3.1523-4.2773 5.2148-5.7383l-1.9297-2.7188c-1.6133 1.1445-3.0273 2.5547-4.2969 4.1289 0.50391-9.3398 5.6562-10.875 10.668-12.355zm-43.699 62.914c0.22656-4.1211 1.6562-14.84 10.312-16.703 4.2969-0.92969 7.5586 1.1836 10.277 3.2344l1.4297 1.0742 0.97266-1.5c1.8047-2.7852 5.0508-6.1055 10.266-6.1055 2.7617 0 5.0938 1.3398 6.9297 3.9844l1.0938 1.5742 1.4062-1.3008c2.1016-1.9414 5.3594-4.2578 8.9375-4.2578 9.7578 0 14.484 10.07 14.961 20z"/>
    </g>
</svg>
