<?xml version="1.0" encoding="UTF-8"?>
<svg width="100pt" height="100pt" version="1.1" viewBox="0 0 100 100" xmlns="http://www.w3.org/2000/svg">
 <g fill="#333">
  <path d="m76.336 50c0-6.9844-2.7773-13.684-7.7148-18.621s-11.637-7.7109-18.621-7.7148c-6.9844 0-13.68 2.7773-18.621 7.7148-4.9375 4.9375-7.7109 11.637-7.7109 18.621s2.7734 13.68 7.7109 18.621c4.9375 4.9375 11.637 7.7109 18.621 7.7109 6.9805-0.007812 13.676-2.7852 18.613-7.7188 4.9375-4.9375 7.7109-11.633 7.7227-18.613zm-26.336 21.332c-5.6562 0-11.082-2.2461-15.086-6.2461-4-4.0039-6.2461-9.4297-6.2461-15.086 0-5.6602 2.2461-11.086 6.25-15.086 4-4 9.4258-6.2461 15.082-6.2461 5.6602 0 11.086 2.2461 15.086 6.2461 4 4.0039 6.25 9.4297 6.25 15.086-0.007813 5.6562-2.2578 11.078-6.2578 15.078s-9.4219 6.25-15.078 6.2539z"/>
  <path d="m52.5 16.492v-8.9922c0-1.3789-1.1211-2.5-2.5-2.5s-2.5 1.1211-2.5 2.5v8.9922c0 1.3828 1.1211 2.5 2.5 2.5s2.5-1.1172 2.5-2.5z"/>
  <path d="m47.5 83.508v8.9922c0 1.3789 1.1211 2.5 2.5 2.5s2.5-1.1211 2.5-2.5v-8.9922c0-1.3828-1.1211-2.5-2.5-2.5s-2.5 1.1172-2.5 2.5z"/>
  <path d="m75.461 28.074 6.3594-6.3594c0.46875-0.46875 0.73438-1.1055 0.73828-1.7695 0-0.66406-0.26562-1.3008-0.73438-1.7695s-1.1055-0.73438-1.7695-0.73438c-0.66406 0.003906-1.3008 0.26953-1.7695 0.73828l-6.3594 6.3594c-0.46875 0.46875-0.73438 1.1055-0.73438 1.7695 0 0.66406 0.26562 1.2969 0.73438 1.7656 0.97656 0.97656 2.5586 0.97656 3.5352 0z"/>
  <path d="m24.539 71.926-6.3594 6.3594c-0.46875 0.46875-0.73438 1.1055-0.73828 1.7695 0 0.66406 0.26562 1.3008 0.73438 1.7695s1.1055 0.73438 1.7695 0.73438c0.66406-0.003906 1.3008-0.26953 1.7695-0.73828l6.3594-6.3594c0.97656-0.97656 0.97656-2.5586 0-3.5352-0.97656-0.97656-2.5586-0.97656-3.5352 0z"/>
  <path d="m92.5 52.5c1.3789 0 2.5-1.1211 2.5-2.5s-1.1211-2.5-2.5-2.5h-8.9922c-1.3828 0-2.5 1.1211-2.5 2.5s1.1172 2.5 2.5 2.5z"/>
  <path d="m7.5 52.5h8.9922c1.3828 0 2.5-1.1211 2.5-2.5s-1.1172-2.5-2.5-2.5h-8.9922c-1.3789 0-2.5 1.1211-2.5 2.5s1.1211 2.5 2.5 2.5z"/>
  <path d="m78.285 81.82c0.46875 0.46875 1.1055 0.73438 1.7695 0.73828 0.66406 0 1.3008-0.26562 1.7695-0.73438s0.73438-1.1055 0.73438-1.7695c-0.003906-0.66406-0.26953-1.3008-0.73828-1.7695l-6.3594-6.3594c-0.97656-0.97656-2.5586-0.97656-3.5352 0-0.97656 0.97656-0.97656 2.5586 0 3.5352z"/>
  <path d="m28.074 28.074c0.97656-0.97656 0.97656-2.5586 0-3.5352l-6.3594-6.3594c-0.97656-0.97266-2.5547-0.96875-3.5312 0.003906-0.97266 0.97656-0.97656 2.5547-0.003906 3.5312l6.3594 6.3594c0.46875 0.46875 1.1055 0.73438 1.7695 0.73438 0.66406 0 1.2969-0.26562 1.7656-0.73438z"/>
 </g>
</svg>
