<?xml version="1.0" encoding="UTF-8"?>
<svg width="100pt" height="100pt" version="1.1" viewBox="0 0 100 100" xmlns="http://www.w3.org/2000/svg">
 <g fill="#333">
  <path d="m75.801 53.199c1.1016 0 2-0.89844 2-2l0.10156-14.301c0-0.5-0.19922-1-0.60156-1.3984-0.39844-0.39844-0.89844-0.60156-1.3984-0.60156h-0.10156c-2.3984 0-4.6992 0.89844-6.3984 2.6016-0.69922 0.60156-1.1992 1.3984-1.6016 2.1992l-10.102-0.89844 2.8984-3.3984c1.5-1.8008 1.3984-4.3984-0.19922-6l-19.199-19.203c-1.6992-1.6992-4.3984-1.6992-6.1992-0.10156l-1.3008 1.1992v-0.10156c-3.1016-3.1016-7.1992-4.8008-11.5-4.8008s-8.3984 1.6992-11.5 4.8008c-3.0977 3.1055-4.6992 7.2031-4.6992 11.504 0 3.8984 1.3984 7.6016 3.8984 10.5l-2.6016 2.3984c-0.89844 0.80078-1.3984 2-1.3984 3.1992s0.39844 2.3984 1.3008 3.1992l22.398 22.398c0.80078 0.80078 2 1.3008 3.1016 1.3008h0.19922c1.1992 0 2.3984-0.60156 3.1992-1.6016l8.5-10 24-4.8008c1.6016 2.4062 4.2031 3.9062 7.2031 3.9062zm-62.301-39.098c2.3008-2.3008 5.3984-3.6016 8.6992-3.6016 3.1992 0 6.3008 1.3008 8.6016 3.5l-18 16.602c-1.8008-2.1992-2.8008-4.8984-2.8008-7.8008 0-3.3008 1.1992-6.4023 3.5-8.6992zm19.398 47.5c-0.10156 0.10156-0.19922 0.19922-0.30078 0.19922-0.10156 0-0.19922 0-0.30078-0.10156l-22.398-22.398c-0.10156-0.10156-0.10156-0.19922-0.10156-0.30078s0-0.19922 0.10156-0.30078l27.902-25.699c0.19922-0.19922 0.5-0.19922 0.60156 0l19.102 19.102c0.19922 0.19922 0.19922 0.39844 0 0.60156zm15.801-12.301l5.8008-6.8008 12.301 1.1016v0.30078c0 0.60156 0.10156 1.1016 0.19922 1.6992zm25.102-0.5c-1.8008-0.80078-3.1016-2.6992-3.1016-4.8008 0-1.3984 0.5-2.6992 1.5-3.6016 0.5-0.5 1-0.80078 1.6016-1.1016z"/>
  <path d="m78.898 54.199c-0.80078 0-1.3984 0.39844-1.8008 1.1016-0.89844 1.8008-5.3984 11-2.6992 15.398 0.60156 1 1.8984 2.3008 4.5 2.3008 2.6016 0 3.8008-1.1992 4.5-2.3008 2.6992-4.3984-1.8008-13.602-2.6992-15.398-0.39844-0.69922-1-1.1016-1.8008-1.1016zm1.1016 14.301c-0.10156 0.10156-0.19922 0.39844-1.1016 0.39844-0.89844 0-1-0.30078-1.1016-0.39844-0.69922-1.1016-0.10156-4.1016 1.1016-7.3008 1.1016 3.1016 1.8008 6.1992 1.1016 7.3008z"/>
  <path d="m78.898 75.602c-0.80078 0-1.3984 0.39844-1.8008 1.1016-0.89844 1.8008-5.3984 11-2.6992 15.398 0.60156 1 1.8984 2.3008 4.5 2.3008 2.6016 0 3.8008-1.1992 4.5-2.3008 2.6992-4.3984-1.8008-13.602-2.6992-15.398-0.39844-0.70312-1-1.1016-1.8008-1.1016zm1.1016 14.398c-0.10156 0.10156-0.19922 0.39844-1.1016 0.39844-0.89844 0-1-0.30078-1.1016-0.39844-0.69922-1.1016-0.10156-4.1016 1.1016-7.3008 1.1016 3 1.8008 6.1016 1.1016 7.3008z"/>
 </g>
</svg>
